<svg xmlns="http://www.w3.org/2000/svg" width="960" height="600" viewBox="0 0 960 600">
  <!-- Placeholder dither-abstract: the Black Swan slot. A form suggested
       more than shown. Replace with final art — see README asset checklist. -->
  <defs>
    <radialGradient id="halo" cx="42%" cy="46%" r="55%">
      <stop offset="0%" stop-color="#ffffff" stop-opacity="0.9"/>
      <stop offset="45%" stop-color="#cccccc" stop-opacity="0.35"/>
      <stop offset="100%" stop-color="#000000" stop-opacity="0"/>
    </radialGradient>
    <filter id="soft" x="-30%" y="-30%" width="160%" height="160%">
      <feGaussianBlur stdDeviation="22"/>
    </filter>
  </defs>
  <rect width="960" height="600" fill="#000"/>
  <rect width="960" height="600" fill="url(#halo)"/>
  <!-- the long neck and folded wing, abstracted -->
  <path d="M 300 470 C 330 330 420 300 470 250 C 520 200 500 140 440 120
           C 500 110 570 160 560 240 C 552 310 500 360 520 430
           C 540 480 620 470 660 440 C 630 510 500 540 420 510 Z"
        fill="#e9e9e9" opacity="0.85" filter="url(#soft)"/>
  <path d="M 430 130 q -30 -18 -58 -2 q 22 20 58 2 Z" fill="#111" filter="url(#soft)"/>
  <ellipse cx="640" cy="480" rx="220" ry="40" fill="#1a1a1a" filter="url(#soft)"/>
</svg>
